<?xml version="1.0" encoding="UTF-8"?>
<svg width="45px" height="124px" viewBox="0 0 45 124" version="1.1" xmlns="http://www.w3.org/2000/svg" xmlns:xlink="http://www.w3.org/1999/xlink">
    <!-- Generator: Sketch 47.1 (45422) - http://www.bohemiancoding.com/sketch -->
    <title>女</title>
    <desc>Created with Sketch.</desc>
    <defs></defs>
    <g id="人资" stroke="none" stroke-width="1" fill="none" fill-rule="evenodd">
        <g id="Artboard" transform="translate(-295.000000, -214.000000)" fill="#EEEEEE">
            <g id="女" transform="translate(295.000000, 214.000000)">
                <path d="M44.8473518,62.0567543 C44.5173423,60.8024319 44.2529597,60.538068 44.5173423,60.8024319 C44.7817249,61.0667959 44.9167288,60.4068235 44.7817249,58.7568927 C44.6504711,57.1069619 44.5173423,51.0322166 44.5173423,49.449783 C44.5173423,47.8635995 42.9347968,45.1580879 42.9347968,43.772521 C42.9347968,42.3850792 42.2054008,37.1053006 42.0760221,35.2566281 C41.9428933,33.4079556 41.48163,30.3068356 41.48163,28.390666 C41.48163,26.4782461 41.6803857,22.3852928 41.1534956,21.5265788 C40.6247304,20.6678648 39.5015731,19.8110257 38.2471621,19.2166756 C36.990876,18.6223255 36.332732,18.4892061 35.6727131,17.8311087 C35.0126941,17.1692615 35.1439479,16.7736531 35.080196,15.1237222 C35.0126941,13.4737914 35.4083305,13.4737914 35.0126941,12.6806997 C34.6151827,11.8894828 35.8039668,12.6150774 35.8695937,13.936897 C35.9370957,15.2568417 37.1896317,15.5868278 37.1896317,15.5868278 C37.1896317,15.5868278 36.1339763,15.0581 36.0664744,13.5394137 C36.0045976,12.0207273 36.8614972,13.0763081 36.9271241,13.6725331 C36.990876,14.2650082 36.7283684,14.6624916 36.7283684,14.6624916 C36.7283684,14.6624916 37.3883874,14.0006443 36.9271241,13.0763081 C36.4658609,12.1519718 35.080196,9.24959354 36.1339763,11.1638883 C37.1896317,13.0763081 37.9827795,13.6050359 37.9827795,13.6050359 C37.9827795,13.6050359 36.9271241,12.5494552 36.5952396,11.4938744 C36.2671051,10.4382937 36.7283684,12.0207273 37.5890181,12.6150774 C38.4440427,13.2094275 38.7740522,12.2850913 38.7740522,12.2850913 C38.7740522,12.2850913 38.1796601,13.340672 37.2571336,11.9551051 C36.332732,10.5695382 36.6627415,9.97518811 35.6052111,8.78648796 C34.5495558,7.59966272 36.4658609,9.05085187 37.0583779,10.2376771 C37.654645,11.4263773 38.3127889,11.1638883 38.3127889,11.1638883 C38.3127889,11.1638883 37.4540143,11.1638883 36.990876,9.84394362 C36.5296127,8.52399896 35.7383399,7.59966272 35.6052111,6.60782931 C35.4758324,5.61787082 35.5414593,5.61787082 34.6151827,4.56229008 C33.6926561,3.50670934 32.7026277,1.52679235 31.5138435,0.733700607 C30.3250594,-0.0593911388 29.9969249,0.00623110966 29.0050214,0.0737282795 C28.014993,0.139350528 27.947491,0.0737282795 27.0249645,0.00623110966 C25.9693092,-0.0687657457 24.9136538,0.53495894 23.8561234,1.7236591 C22.8004681,2.91235926 21.8760665,5.02352074 20.9497899,5.61787082 C20.0272634,6.21409582 19.6297519,6.93969039 19.3672444,7.3352988 C19.1047368,7.73090722 19.5660001,8.98522962 19.6297519,9.51208253 C19.6972539,10.0426853 20.0272634,11.2295105 19.1047368,11.5594967 C18.1784602,11.8894828 16.7252934,12.0207273 16.7252934,12.0207273 C16.7252934,12.0207273 18.1784602,12.2850913 18.971608,12.0207273 C19.7647558,11.7563634 18.5740966,12.2850913 18.5084697,13.4737914 C18.4428428,14.6624916 19.1666136,15.4537084 19.1666136,15.4537084 C19.1666136,15.4537084 18.9059811,13.936897 19.4984982,12.8138191 C20.0947653,11.6907412 20.9497899,12.6150774 20.3553978,13.6050359 C19.7647558,14.5949944 20.0947653,16.1136807 18.2440871,16.8392753 C16.9127988,17.3642533 16.3071564,17.2686323 16.0690246,17.1767612 C16.4740362,17.3811276 17.8297002,17.8911062 19.4328713,16.5092891 C21.3473013,14.8593583 21.0172918,15.6524501 20.5560286,16.3780446 C20.0947653,17.1036392 20.2260191,18.4254588 20.2260191,18.4254588 C20.2260191,18.4254588 18.1128333,19.0835562 16.7927954,19.4135424 C15.4708824,19.7435285 14.8783654,19.6797812 14.3496002,21.1309704 C13.820835,22.5821595 13.2283179,27.7306936 12.6995527,30.8993108 C12.1707875,34.0679279 11.9064049,38.7552314 11.9064049,40.4707844 C11.9064049,42.1882124 11.7076492,44.893724 11.3138879,46.2136686 C10.9182515,47.5336133 10.9182515,49.6485246 10.7194958,51.165336 C10.5207401,52.6821474 10.3219844,53.6064837 10.1251037,55.1926672 C9.92634802,56.7751008 9.46320971,59.3493679 9.06757334,59.8124735 C8.67193697,60.2737041 7.81316228,62.6511044 7.42127602,63.7741823 C7.02188954,64.8953853 6.82313382,65.7540993 6.88876071,66.5453161 C6.95626265,67.3384079 7.68003345,67.7996386 7.74753539,67.074044 C7.81316228,66.3484494 8.14129671,64.6310214 8.93444451,64.0366713 C9.72946736,63.4423213 10.9182515,62.3867405 10.9820034,63.376699 C11.0495053,64.3666575 10.9182515,66.21533 11.3138879,66.21533 C11.7076492,66.21533 12.1707875,65.8853438 12.1707875,65.1597492 C12.1707875,64.4322797 12.1070357,62.517985 12.6339258,61.6611459 C13.160816,60.8024319 14.415227,61.9236349 14.6158578,61.2636626 C14.8108634,60.6055652 15.142748,58.822515 15.4052555,56.7751008 C15.6696381,54.7295616 17.3215606,48.5254467 17.3215606,48.5254467 L16.9240492,53.6739808 L17.717197,53.8052253 C17.717197,53.8052253 17.8484507,56.842598 17.4528144,57.963801 C17.0553029,59.0868789 16.397159,61.7942654 14.5464808,64.8953853 C12.6995527,67.9983802 11.5107686,70.3082834 10.4551132,73.2125366 C9.39758282,76.1167898 9.33195594,76.446776 8.60631008,78.4923152 C7.88253928,80.5397294 7.08939148,81.5296879 7.08939148,82.5196463 C7.08939148,83.5096048 7.74753539,92.5523507 7.61628162,97.0409125 C7.4831528,101.531349 6.69188005,116.18386 6.69188005,116.18386 L8.47318125,116.316979 C8.47318125,116.316979 6.75750694,120.342435 5.50309588,121.135527 C4.24868483,121.928619 1.93861843,122.125486 1.41172828,122.191108 C0.881088029,122.258605 -1.09709383,123.842914 0.817336196,123.842914 C2.73176622,123.842914 9.5325867,124.502886 10.9182515,123.117319 C12.3039164,121.729877 13.7589582,118.231274 15.2083748,118.165652 C16.6596666,118.100029 16.5284128,119.088113 16.5284128,120.211191 C16.5284128,121.332394 16.4627859,122.918577 16.4627859,122.918577 L17.4528144,122.852955 C17.4528144,122.852955 17.4528144,118.563135 17.7828238,117.835666 C18.1128333,117.108196 18.7728523,116.780085 18.2440871,115.722629 C17.717197,114.667048 17.9815796,111.828417 17.1884318,107.802961 C16.397159,103.77563 16.9240492,96.8440457 16.7927954,94.071037 C16.6596666,91.2999032 16.9915511,89.8468391 17.0553029,87.8669221 C17.1209298,85.8870052 18.0453314,82.3209047 19.3672444,80.0110015 C20.6872823,77.7010984 24.120506,72.0238364 25.7049266,69.7795555 C27.287472,67.5352746 28.8062657,64.8297631 29.0706483,65.6866022 C29.3350309,66.5453161 29.7287922,70.8351363 29.7287922,73.608145 C29.7287922,76.3811537 30.0606768,81.1340794 30.0606768,84.4339411 C30.0606768,87.7356776 30.3250594,91.4967699 29.7287922,95.5915982 C29.1381502,99.6826767 28.4762562,103.048161 28.2137487,105.556805 C27.947491,108.06545 27.4206009,111.762795 27.287472,113.808334 C27.1562183,115.855749 27.1562183,117.37256 27.1562183,117.37256 L27.6174815,117.37256 C27.6174815,117.37256 27.354974,118.626882 26.8918357,119.881205 C26.4305724,121.135527 25.6374246,121.928619 26.4305724,122.191108 C27.2237202,122.455472 32.6351258,122.785458 32.8320064,121.928619 C33.0326372,121.069905 32.7026277,119.354352 32.7026277,118.758127 C32.7026277,118.165652 33.2295178,117.835666 33.2295178,117.835666 L34.9451922,117.702546 C34.9451922,117.702546 35.3427036,113.08274 35.8695937,109.385395 C36.3983589,105.6918 37.7183969,96.7128012 38.1177833,92.3554839 C38.5115447,87.9981666 39.4359462,79.1522875 39.7678308,75.588062 C40.0940901,72.0238364 40.4897265,69.1852055 40.4897265,69.1852055 C40.4897265,69.1852055 40.8872379,69.648311 41.7460126,68.9208415 C42.6029123,68.195247 43.5948158,67.4040301 44.1873328,66.0840855 C44.7817249,64.7641408 45.1773613,63.3110768 44.8473518,62.0567543 Z M34.3526751,39.9439315 C33.9570387,39.2839592 34.3526751,38.4252452 34.6826846,36.8409366 C35.0126941,35.2566281 36.1339763,33.0779694 36.1339763,33.0779694 C36.1339763,33.0779694 36.2014783,35.6541114 36.332732,37.6340284 C36.4658609,39.6139454 36.4658609,43.1125487 36.4658609,43.1125487 C36.4658609,43.1125487 34.7483115,40.6039039 34.3526751,39.9439315 Z M42.9347968,65.0266298 C42.8672949,65.9509661 42.5372854,66.6109384 42.0103952,67.074044 C41.48163,67.5352746 40.5572285,68.3283664 40.5572285,68.3283664 C40.5572285,68.3283664 40.6247304,65.8853438 40.9528648,65.8853438 C41.2828743,65.8853438 42.3404047,66.4140716 42.3404047,65.0922521 C42.3404047,63.7741823 42.2054008,62.8498461 42.6029123,62.7823489 C42.8972957,62.7354759 43.0004237,64.1041685 42.9347968,65.0266298 L42.9347968,65.0266298 Z" id="Fill-379"></path>
            </g>
        </g>
    </g>
</svg>